<svg xmlns="http://www.w3.org/2000/svg" viewBox="0 0 560 320" fill="none" aria-hidden="true">
  <defs>
    <linearGradient id="c-bg" x1="280" y1="0" x2="280" y2="320" gradientUnits="userSpaceOnUse">
      <stop stop-color="#14121E"/>
      <stop offset="0.55" stop-color="#0F0D16"/>
      <stop offset="1" stop-color="#09070D"/>
    </linearGradient>
    <radialGradient id="c-glow" cx="0" cy="0" r="1" gradientUnits="userSpaceOnUse" gradientTransform="translate(420 88) rotate(90) scale(130)">
      <stop stop-color="#7C3AED" stop-opacity="0.4"/>
      <stop offset="1" stop-color="#7C3AED" stop-opacity="0"/>
    </radialGradient>
    <radialGradient id="c-glow-2" cx="0" cy="0" r="1" gradientUnits="userSpaceOnUse" gradientTransform="translate(156 196) rotate(90) scale(110)">
      <stop stop-color="#34D399" stop-opacity="0.18"/>
      <stop offset="1" stop-color="#34D399" stop-opacity="0"/>
    </radialGradient>
    <linearGradient id="c-map" x1="280" y1="72" x2="280" y2="252" gradientUnits="userSpaceOnUse">
      <stop stop-color="rgba(255,255,255,0.08)"/>
      <stop offset="1" stop-color="rgba(255,255,255,0.02)"/>
    </linearGradient>
    <linearGradient id="c-accent" x1="0" y1="0" x2="1" y2="1">
      <stop stop-color="#C4B5FD"/>
      <stop offset="1" stop-color="#7C3AED"/>
    </linearGradient>
    <filter id="c-shadow" x="-20%" y="-20%" width="140%" height="140%">
      <feDropShadow dx="0" dy="18" stdDeviation="18" flood-color="#000" flood-opacity="0.48"/>
    </filter>
    <filter id="c-shadow-sm" x="-20%" y="-20%" width="140%" height="140%">
      <feDropShadow dx="0" dy="10" stdDeviation="10" flood-color="#000" flood-opacity="0.34"/>
    </filter>
    <pattern id="c-grid" width="32" height="32" patternUnits="userSpaceOnUse">
      <path d="M32 0H0V32" stroke="rgba(255,255,255,0.04)" stroke-width="1"/>
    </pattern>
  </defs>

  <rect width="560" height="320" fill="url(#c-bg)"/>
  <rect width="560" height="320" fill="url(#c-grid)"/>
  <ellipse cx="420" cy="88" rx="160" ry="100" fill="url(#c-glow)"/>
  <ellipse cx="156" cy="196" rx="130" ry="84" fill="url(#c-glow-2)"/>

  <g filter="url(#c-shadow)">
    <path d="M96 84 L464 72 L472 252 L104 264 Z" fill="url(#c-map)" stroke="rgba(255,255,255,0.12)" stroke-width="1.25"/>
    <path d="M128 120h304M128 160h304M128 200h304" stroke="rgba(255,255,255,0.05)" stroke-width="1"/>
    <path d="M176 96v168M256 96v168M336 96v168M416 96v168" stroke="rgba(255,255,255,0.05)" stroke-width="1"/>

    <circle cx="208" cy="156" r="52" stroke="rgba(196,181,253,0.16)" stroke-width="1"/>
    <circle cx="208" cy="156" r="30" stroke="rgba(196,181,253,0.1)" stroke-width="1"/>
    <circle cx="344" cy="176" r="64" stroke="rgba(196,181,253,0.16)" stroke-width="1"/>
    <circle cx="344" cy="176" r="36" stroke="rgba(196,181,253,0.1)" stroke-width="1"/>

    <path d="M208 196v30c0 9-7 16-16 16h-3c-9 0-16-7-16-16v-30c0-18 16-32 32-32h3" fill="url(#c-accent)"/>
    <circle cx="208" cy="156" r="10" fill="#0F0D16" stroke="#DDD6FE" stroke-width="2.25"/>
    <path d="M344 224v30c0 9-7 16-16 16h-3c-9 0-16-7-16-16v-30c0-18 16-32 32-32h3" fill="rgba(196,181,253,0.78)"/>
    <circle cx="344" cy="176" r="10" fill="#0F0D16" stroke="#DDD6FE" stroke-width="2.25"/>
    <path d="M428 132v22c0 7-5 12-11 12h-2c-6 0-11-5-11-12v-22c0-11 10-20 20-20h2" fill="rgba(255,255,255,0.9)"/>
    <circle cx="428" cy="112" r="8" fill="#0F0D16" stroke="rgba(255,255,255,0.9)" stroke-width="1.75"/>

    <path d="M208 156h136" stroke="rgba(196,181,253,0.28)" stroke-width="1.5"/>
    <path d="M344 176l84-58" stroke="rgba(196,181,253,0.22)" stroke-width="1.5"/>
  </g>

  <g filter="url(#c-shadow-sm)">
    <rect x="40" y="48" width="132" height="76" rx="16" fill="rgba(255,255,255,0.05)" stroke="rgba(255,255,255,0.11)" stroke-width="1.25"/>
    <ellipse cx="72" cy="78" rx="18" ry="12" stroke="rgba(255,255,255,0.5)" stroke-width="1.5"/>
    <path d="M52 78h40" stroke="rgba(255,255,255,0.28)" stroke-width="1.25"/>
    <rect x="98" y="66" width="54" height="32" rx="8" fill="rgba(109,40,217,0.38)" stroke="rgba(196,181,253,0.25)" stroke-width="1"/>
    <path d="M110 82h30" stroke="#EDE9FE" stroke-width="2.25" stroke-linecap="round"/>
    <rect x="58" y="98" width="48" height="5" rx="2.5" fill="rgba(255,255,255,0.28)"/>
  </g>

  <g filter="url(#c-shadow-sm)">
    <rect x="388" y="44" width="132" height="56" rx="14" fill="rgba(255,255,255,0.05)" stroke="rgba(255,255,255,0.1)" stroke-width="1.25"/>
    <rect x="406" y="60" width="64" height="6" rx="3" fill="rgba(255,255,255,0.42)"/>
    <rect x="406" y="74" width="44" height="4" rx="2" fill="rgba(255,255,255,0.18)"/>
    <rect x="406" y="84" width="56" height="4" rx="2" fill="rgba(255,255,255,0.12)"/>
  </g>
</svg>
