<svg xmlns="http://www.w3.org/2000/svg" viewBox="0 0 560 320" fill="none" aria-hidden="true">
  <defs>
    <linearGradient id="a-bg" x1="280" y1="0" x2="280" y2="320" gradientUnits="userSpaceOnUse">
      <stop stop-color="#1B1630"/>
      <stop offset="0.55" stop-color="#12101C"/>
      <stop offset="1" stop-color="#0C0A12"/>
    </linearGradient>
    <radialGradient id="a-glow" cx="0" cy="0" r="1" gradientUnits="userSpaceOnUse" gradientTransform="translate(392 72) rotate(90) scale(160)">
      <stop stop-color="#7C3AED" stop-opacity="0.55"/>
      <stop offset="1" stop-color="#7C3AED" stop-opacity="0"/>
    </radialGradient>
    <radialGradient id="a-glow-2" cx="0" cy="0" r="1" gradientUnits="userSpaceOnUse" gradientTransform="translate(148 220) rotate(90) scale(120)">
      <stop stop-color="#B89DFF" stop-opacity="0.22"/>
      <stop offset="1" stop-color="#B89DFF" stop-opacity="0"/>
    </radialGradient>
    <linearGradient id="a-glass" x1="280" y1="56" x2="280" y2="248" gradientUnits="userSpaceOnUse">
      <stop stop-color="rgba(255,255,255,0.14)"/>
      <stop offset="1" stop-color="rgba(255,255,255,0.03)"/>
    </linearGradient>
    <linearGradient id="a-accent" x1="0" y1="0" x2="1" y2="1">
      <stop stop-color="#C4B5FD"/>
      <stop offset="1" stop-color="#7C3AED"/>
    </linearGradient>
    <filter id="a-shadow" x="-20%" y="-20%" width="140%" height="140%">
      <feDropShadow dx="0" dy="18" stdDeviation="18" flood-color="#000" flood-opacity="0.45"/>
    </filter>
    <filter id="a-shadow-sm" x="-20%" y="-20%" width="140%" height="140%">
      <feDropShadow dx="0" dy="10" stdDeviation="10" flood-color="#000" flood-opacity="0.35"/>
    </filter>
    <pattern id="a-grid" width="24" height="24" patternUnits="userSpaceOnUse">
      <path d="M24 0H0V24" stroke="rgba(255,255,255,0.04)" stroke-width="1"/>
    </pattern>
  </defs>

  <rect width="560" height="320" fill="url(#a-bg)"/>
  <rect width="560" height="320" fill="url(#a-grid)"/>
  <ellipse cx="392" cy="72" rx="180" ry="120" fill="url(#a-glow)"/>
  <ellipse cx="148" cy="220" rx="140" ry="90" fill="url(#a-glow-2)"/>

  <g filter="url(#a-shadow)">
    <path d="M108 92 L392 72 L404 228 L120 248 Z" fill="url(#a-glass)" stroke="rgba(255,255,255,0.16)" stroke-width="1.25"/>
    <rect x="132" y="98" width="244" height="18" rx="9" fill="rgba(255,255,255,0.06)"/>
    <circle cx="146" cy="107" r="4" fill="#F87171"/>
    <circle cx="160" cy="107" r="4" fill="#FBBF24"/>
    <circle cx="174" cy="107" r="4" fill="#34D399"/>
    <rect x="132" y="128" width="244" height="96" rx="14" fill="rgba(0,0,0,0.22)" stroke="rgba(255,255,255,0.08)" stroke-width="1"/>
    <circle cx="168" cy="168" r="28" fill="rgba(109,40,217,0.45)" stroke="rgba(196,181,253,0.55)" stroke-width="1.5"/>
    <path d="M160 168c0-4.4 3.6-8 8-8" stroke="#EDE9FE" stroke-width="2.5" stroke-linecap="round"/>
    <rect x="208" y="148" width="88" height="8" rx="4" fill="url(#a-accent)"/>
    <rect x="208" y="164" width="132" height="5" rx="2.5" fill="rgba(255,255,255,0.28)"/>
    <rect x="208" y="176" width="108" height="5" rx="2.5" fill="rgba(255,255,255,0.16)"/>
    <rect x="208" y="194" width="72" height="14" rx="7" fill="rgba(124,58,237,0.55)" stroke="rgba(196,181,253,0.35)" stroke-width="1"/>
    <rect x="360" y="136" width="96" height="72" rx="12" fill="rgba(255,255,255,0.05)" stroke="rgba(255,255,255,0.1)" stroke-width="1"/>
    <path d="M376 188V152" stroke="rgba(196,181,253,0.25)" stroke-width="1"/>
    <rect x="386" y="164" width="14" height="24" rx="4" fill="url(#a-accent)"/>
    <rect x="406" y="172" width="14" height="16" rx="4" fill="rgba(255,255,255,0.22)"/>
    <rect x="426" y="156" width="14" height="32" rx="4" fill="rgba(196,181,253,0.55)"/>
    <path d="M386 146h42" stroke="rgba(255,255,255,0.2)" stroke-width="1"/>
    <rect x="386" y="140" width="34" height="4" rx="2" fill="rgba(255,255,255,0.35)"/>
  </g>

  <g filter="url(#a-shadow-sm)">
    <path d="M404 108 L492 98 L500 206 L412 216 Z" fill="rgba(18,16,28,0.92)" stroke="rgba(255,255,255,0.14)" stroke-width="1.25"/>
    <rect x="420" y="116" width="64" height="10" rx="5" fill="rgba(255,255,255,0.08)"/>
    <rect x="420" y="136" width="64" height="44" rx="10" fill="rgba(109,40,217,0.35)" stroke="rgba(196,181,253,0.28)" stroke-width="1"/>
    <rect x="428" y="148" width="36" height="5" rx="2.5" fill="#EDE9FE"/>
    <rect x="428" y="160" width="48" height="4" rx="2" fill="rgba(255,255,255,0.25)"/>
    <circle cx="452" cy="198" r="10" fill="url(#a-accent)"/>
  </g>

  <g filter="url(#a-shadow-sm)">
    <rect x="44" y="64" width="112" height="72" rx="16" fill="rgba(255,255,255,0.06)" stroke="rgba(255,255,255,0.12)" stroke-width="1.25"/>
    <rect x="58" y="78" width="48" height="6" rx="3" fill="url(#a-accent)"/>
    <rect x="58" y="92" width="72" height="4" rx="2" fill="rgba(255,255,255,0.22)"/>
    <rect x="58" y="102" width="56" height="4" rx="2" fill="rgba(255,255,255,0.14)"/>
    <rect x="58" y="116" width="40" height="10" rx="5" fill="rgba(124,58,237,0.45)"/>
  </g>
</svg>
