<svg xmlns="http://www.w3.org/2000/svg" viewBox="0 0 560 320" fill="none" aria-hidden="true">
  <defs>
    <linearGradient id="b-bg" x1="280" y1="0" x2="280" y2="320" gradientUnits="userSpaceOnUse">
      <stop stop-color="#171325"/>
      <stop offset="0.55" stop-color="#100E18"/>
      <stop offset="1" stop-color="#0A0810"/>
    </linearGradient>
    <radialGradient id="b-spot" cx="0" cy="0" r="1" gradientUnits="userSpaceOnUse" gradientTransform="translate(280 84) rotate(90) scale(140)">
      <stop stop-color="#C4B5FD" stop-opacity="0.42"/>
      <stop offset="1" stop-color="#6D28D9" stop-opacity="0"/>
    </radialGradient>
    <linearGradient id="b-stage" x1="280" y1="120" x2="280" y2="272" gradientUnits="userSpaceOnUse">
      <stop stop-color="rgba(255,255,255,0.12)"/>
      <stop offset="1" stop-color="rgba(255,255,255,0.02)"/>
    </linearGradient>
    <linearGradient id="b-accent" x1="0" y1="0" x2="1" y2="1">
      <stop stop-color="#DDD6FE"/>
      <stop offset="1" stop-color="#8B5CF6"/>
    </linearGradient>
    <filter id="b-shadow" x="-20%" y="-20%" width="140%" height="140%">
      <feDropShadow dx="0" dy="20" stdDeviation="20" flood-color="#000" flood-opacity="0.5"/>
    </filter>
    <filter id="b-shadow-sm" x="-20%" y="-20%" width="140%" height="140%">
      <feDropShadow dx="0" dy="12" stdDeviation="12" flood-color="#000" flood-opacity="0.38"/>
    </filter>
    <pattern id="b-grid" width="28" height="28" patternUnits="userSpaceOnUse">
      <path d="M28 0H0V28" stroke="rgba(255,255,255,0.035)" stroke-width="1"/>
    </pattern>
  </defs>

  <rect width="560" height="320" fill="url(#b-bg)"/>
  <rect width="560" height="320" fill="url(#b-grid)"/>
  <ellipse cx="280" cy="84" rx="220" ry="120" fill="url(#b-spot)"/>
  <path d="M0 272h560" stroke="rgba(255,255,255,0.08)" stroke-width="1"/>
  <ellipse cx="280" cy="272" rx="220" ry="22" fill="rgba(109,40,217,0.16)"/>

  <path d="M280 28 L332 116 H228 Z" fill="url(#b-spot)" opacity="0.55"/>

  <g filter="url(#b-shadow)">
    <path d="M148 272V156c0-34 59-62 132-62s132 28 132 62v116" fill="url(#b-stage)" stroke="rgba(255,255,255,0.14)" stroke-width="1.5"/>
    <circle cx="280" cy="118" r="34" fill="rgba(255,255,255,0.1)" stroke="rgba(255,255,255,0.55)" stroke-width="1.75"/>
    <path d="M280 100v30" stroke="url(#b-accent)" stroke-width="2.5" stroke-linecap="round"/>
    <rect x="268" y="128" width="24" height="36" rx="6" fill="url(#b-accent)"/>
    <path d="M254 164h52l-8 18h-36l-8-18Z" fill="rgba(196,181,253,0.72)"/>
  </g>

  <g opacity="0.9">
    <circle cx="124" cy="248" r="14" fill="rgba(255,255,255,0.07)" stroke="rgba(255,255,255,0.14)" stroke-width="1"/>
    <circle cx="184" cy="262" r="10" fill="rgba(255,255,255,0.05)" stroke="rgba(255,255,255,0.1)" stroke-width="1"/>
    <circle cx="376" cy="262" r="10" fill="rgba(255,255,255,0.05)" stroke="rgba(255,255,255,0.1)" stroke-width="1"/>
    <circle cx="436" cy="248" r="14" fill="rgba(255,255,255,0.07)" stroke="rgba(255,255,255,0.14)" stroke-width="1"/>
    <circle cx="280" cy="268" r="8" fill="rgba(255,255,255,0.04)"/>
  </g>

  <g filter="url(#b-shadow-sm)">
    <rect x="372" y="48" width="148" height="104" rx="18" fill="rgba(255,255,255,0.06)" stroke="rgba(255,255,255,0.12)" stroke-width="1.25"/>
    <rect x="392" y="68" width="56" height="7" rx="3.5" fill="url(#b-accent)"/>
    <rect x="392" y="84" width="104" height="5" rx="2.5" fill="rgba(255,255,255,0.24)"/>
    <rect x="392" y="96" width="84" height="5" rx="2.5" fill="rgba(255,255,255,0.14)"/>
    <rect x="392" y="116" width="72" height="22" rx="11" fill="rgba(109,40,217,0.42)" stroke="rgba(196,181,253,0.3)" stroke-width="1"/>
    <circle cx="408" cy="127" r="5" fill="#34D399"/>
    <rect x="420" y="124" width="34" height="4" rx="2" fill="rgba(255,255,255,0.45)"/>
  </g>

  <g filter="url(#b-shadow-sm)">
    <rect x="40" y="72" width="128" height="88" rx="16" fill="rgba(255,255,255,0.05)" stroke="rgba(255,255,255,0.11)" stroke-width="1.25"/>
    <rect x="58" y="90" width="40" height="40" rx="12" fill="rgba(109,40,217,0.38)" stroke="rgba(196,181,253,0.28)" stroke-width="1"/>
    <path d="M68 106h20M68 114h12" stroke="rgba(255,255,255,0.45)" stroke-width="2.25" stroke-linecap="round"/>
    <rect x="108" y="96" width="44" height="6" rx="3" fill="rgba(255,255,255,0.42)"/>
    <rect x="108" y="110" width="32" height="4" rx="2" fill="rgba(255,255,255,0.2)"/>
    <rect x="108" y="124" width="38" height="12" rx="6" fill="url(#b-accent)"/>
  </g>
</svg>
