<svg xmlns="http://www.w3.org/2000/svg" viewBox="0 0 560 320" fill="none" aria-hidden="true">
  <defs>
    <linearGradient id="sd-bg" x1="280" y1="0" x2="280" y2="320" gradientUnits="userSpaceOnUse">
      <stop stop-color="#1B1630"/>
      <stop offset="0.55" stop-color="#12101C"/>
      <stop offset="1" stop-color="#0C0A12"/>
    </linearGradient>
    <radialGradient id="sd-glow" cx="0" cy="0" r="1" gradientUnits="userSpaceOnUse" gradientTransform="translate(320 88) rotate(90) scale(150)">
      <stop stop-color="#7C3AED" stop-opacity="0.5"/>
      <stop offset="1" stop-color="#7C3AED" stop-opacity="0"/>
    </radialGradient>
    <radialGradient id="sd-glow-2" cx="0" cy="0" r="1" gradientUnits="userSpaceOnUse" gradientTransform="translate(160 240) rotate(90) scale(110)">
      <stop stop-color="#B89DFF" stop-opacity="0.2"/>
      <stop offset="1" stop-color="#B89DFF" stop-opacity="0"/>
    </radialGradient>
    <linearGradient id="sd-glass" x1="280" y1="72" x2="280" y2="248" gradientUnits="userSpaceOnUse">
      <stop stop-color="rgba(255,255,255,0.14)"/>
      <stop offset="1" stop-color="rgba(255,255,255,0.03)"/>
    </linearGradient>
    <linearGradient id="sd-accent" x1="0" y1="0" x2="1" y2="1">
      <stop stop-color="#C4B5FD"/>
      <stop offset="1" stop-color="#7C3AED"/>
    </linearGradient>
    <filter id="sd-shadow" x="-20%" y="-20%" width="140%" height="140%">
      <feDropShadow dx="0" dy="18" stdDeviation="18" flood-color="#000" flood-opacity="0.45"/>
    </filter>
    <pattern id="sd-grid" width="24" height="24" patternUnits="userSpaceOnUse">
      <path d="M24 0H0V24" stroke="rgba(255,255,255,0.04)" stroke-width="1"/>
    </pattern>
  </defs>

  <rect width="560" height="320" fill="url(#sd-bg)"/>
  <rect width="560" height="320" fill="url(#sd-grid)"/>
  <ellipse cx="320" cy="88" rx="170" ry="110" fill="url(#sd-glow)"/>
  <ellipse cx="160" cy="240" rx="130" ry="85" fill="url(#sd-glow-2)"/>

  <g filter="url(#sd-shadow)">
    <rect x="108" y="56" width="344" height="208" rx="20" fill="url(#sd-glass)" stroke="rgba(255,255,255,0.16)" stroke-width="1.25"/>
    <rect x="128" y="76" width="88" height="10" rx="5" fill="rgba(255,255,255,0.08)"/>
    <rect x="128" y="96" width="148" height="8" rx="4" fill="url(#sd-accent)"/>
    <rect x="128" y="118" width="52" height="6" rx="3" fill="rgba(255,255,255,0.35)"/>
    <rect x="128" y="134" width="136" height="28" rx="10" fill="rgba(0,0,0,0.28)" stroke="rgba(255,255,255,0.1)" stroke-width="1"/>
    <rect x="140" y="146" width="72" height="4" rx="2" fill="rgba(255,255,255,0.22)"/>
    <rect x="280" y="118" width="52" height="6" rx="3" fill="rgba(255,255,255,0.35)"/>
    <rect x="280" y="134" width="136" height="28" rx="10" fill="rgba(0,0,0,0.28)" stroke="rgba(255,255,255,0.1)" stroke-width="1"/>
    <rect x="292" y="146" width="64" height="4" rx="2" fill="rgba(255,255,255,0.22)"/>
    <rect x="128" y="176" width="52" height="6" rx="3" fill="rgba(255,255,255,0.35)"/>
    <rect x="128" y="192" width="288" height="28" rx="10" fill="rgba(0,0,0,0.28)" stroke="rgba(124,58,237,0.35)" stroke-width="1.25"/>
    <rect x="140" y="204" width="120" height="4" rx="2" fill="rgba(196,181,253,0.55)"/>
    <rect x="128" y="236" width="112" height="16" rx="8" fill="url(#sd-accent)"/>
    <rect x="148" y="242" width="48" height="4" rx="2" fill="#EDE9FE"/>
    <path d="M220 244l6 6 12-12" stroke="#EDE9FE" stroke-width="2" stroke-linecap="round" stroke-linejoin="round"/>
  </g>

  <g opacity="0.85">
    <rect x="388" y="88" width="96" height="64" rx="14" fill="rgba(255,255,255,0.05)" stroke="rgba(255,255,255,0.1)" stroke-width="1"/>
    <circle cx="412" cy="112" r="14" fill="rgba(109,40,217,0.45)" stroke="rgba(196,181,253,0.4)" stroke-width="1.25"/>
    <rect x="432" y="106" width="40" height="5" rx="2.5" fill="rgba(255,255,255,0.28)"/>
    <rect x="432" y="116" width="28" height="4" rx="2" fill="rgba(255,255,255,0.14)"/>
    <rect x="400" y="132" width="72" height="8" rx="4" fill="rgba(124,58,237,0.35)"/>
  </g>
</svg>
