<svg xmlns="http://www.w3.org/2000/svg" viewBox="0 0 560 320" fill="none" aria-hidden="true">
  <defs>
    <linearGradient id="sb-bg" x1="280" y1="0" x2="280" y2="320" gradientUnits="userSpaceOnUse">
      <stop stop-color="#0F1A14"/>
      <stop offset="0.55" stop-color="#12101C"/>
      <stop offset="1" stop-color="#0C0A12"/>
    </linearGradient>
    <radialGradient id="sb-glow" cx="0" cy="0" r="1" gradientUnits="userSpaceOnUse" gradientTransform="translate(280 96) rotate(90) scale(140)">
      <stop stop-color="#34D399" stop-opacity="0.28"/>
      <stop offset="1" stop-color="#34D399" stop-opacity="0"/>
    </radialGradient>
    <radialGradient id="sb-glow-2" cx="0" cy="0" r="1" gradientUnits="userSpaceOnUse" gradientTransform="translate(420 200) rotate(90) scale(100)">
      <stop stop-color="#7C3AED" stop-opacity="0.35"/>
      <stop offset="1" stop-color="#7C3AED" stop-opacity="0"/>
    </radialGradient>
    <linearGradient id="sb-glass" x1="280" y1="64" x2="280" y2="256" gradientUnits="userSpaceOnUse">
      <stop stop-color="rgba(255,255,255,0.13)"/>
      <stop offset="1" stop-color="rgba(255,255,255,0.03)"/>
    </linearGradient>
    <linearGradient id="sb-accent" x1="0" y1="0" x2="1" y2="1">
      <stop stop-color="#6EE7B7"/>
      <stop offset="1" stop-color="#10B981"/>
    </linearGradient>
    <linearGradient id="sb-purple" x1="0" y1="0" x2="1" y2="1">
      <stop stop-color="#C4B5FD"/>
      <stop offset="1" stop-color="#7C3AED"/>
    </linearGradient>
    <filter id="sb-shadow" x="-20%" y="-20%" width="140%" height="140%">
      <feDropShadow dx="0" dy="18" stdDeviation="18" flood-color="#000" flood-opacity="0.45"/>
    </filter>
    <pattern id="sb-grid" width="24" height="24" patternUnits="userSpaceOnUse">
      <path d="M24 0H0V24" stroke="rgba(255,255,255,0.04)" stroke-width="1"/>
    </pattern>
  </defs>

  <rect width="560" height="320" fill="url(#sb-bg)"/>
  <rect width="560" height="320" fill="url(#sb-grid)"/>
  <ellipse cx="280" cy="96" rx="180" ry="100" fill="url(#sb-glow)"/>
  <ellipse cx="420" cy="200" rx="120" ry="80" fill="url(#sb-glow-2)"/>

  <g filter="url(#sb-shadow)">
    <rect x="96" y="52" width="368" height="216" rx="20" fill="url(#sb-glass)" stroke="rgba(255,255,255,0.14)" stroke-width="1.25"/>
    <rect x="116" y="72" width="72" height="8" rx="4" fill="rgba(255,255,255,0.35)"/>
    <rect x="204" y="72" width="56" height="8" rx="4" fill="rgba(255,255,255,0.12)"/>

    <g>
      <rect x="116" y="96" width="40" height="48" rx="10" fill="rgba(255,255,255,0.04)" stroke="rgba(255,255,255,0.08)" stroke-width="1"/>
      <rect x="128" y="108" width="16" height="5" rx="2.5" fill="rgba(255,255,255,0.28)"/>
      <rect x="130" y="124" width="12" height="8" rx="3" fill="rgba(255,255,255,0.12)"/>

      <rect x="164" y="96" width="40" height="48" rx="10" fill="rgba(255,255,255,0.04)" stroke="rgba(255,255,255,0.08)" stroke-width="1"/>
      <rect x="176" y="108" width="16" height="5" rx="2.5" fill="rgba(255,255,255,0.28)"/>
      <rect x="178" y="124" width="12" height="8" rx="3" fill="rgba(255,255,255,0.12)"/>

      <rect x="212" y="96" width="40" height="48" rx="10" fill="rgba(124,58,237,0.35)" stroke="rgba(196,181,253,0.45)" stroke-width="1.5"/>
      <rect x="224" y="108" width="16" height="5" rx="2.5" fill="#EDE9FE"/>
      <rect x="226" y="124" width="12" height="8" rx="3" fill="url(#sb-purple)"/>

      <rect x="260" y="96" width="40" height="48" rx="10" fill="rgba(255,255,255,0.04)" stroke="rgba(255,255,255,0.08)" stroke-width="1"/>
      <rect x="272" y="108" width="16" height="5" rx="2.5" fill="rgba(255,255,255,0.28)"/>
      <rect x="274" y="124" width="12" height="8" rx="3" fill="rgba(255,255,255,0.12)"/>

      <rect x="308" y="96" width="40" height="48" rx="10" fill="rgba(255,255,255,0.04)" stroke="rgba(255,255,255,0.08)" stroke-width="1"/>
      <rect x="320" y="108" width="16" height="5" rx="2.5" fill="rgba(255,255,255,0.28)"/>
      <rect x="322" y="124" width="12" height="8" rx="3" fill="rgba(255,255,255,0.12)"/>
    </g>

    <rect x="116" y="160" width="52" height="6" rx="3" fill="rgba(255,255,255,0.35)"/>
    <rect x="116" y="176" width="104" height="28" rx="10" fill="url(#sb-accent)" stroke="rgba(110,231,183,0.35)" stroke-width="1"/>
    <rect x="128" y="188" width="56" height="4" rx="2" fill="#042F1E"/>
    <circle cx="200" cy="190" r="6" fill="#042F1E" opacity="0.35"/>

    <rect x="232" y="176" width="104" height="28" rx="10" fill="rgba(255,255,255,0.06)" stroke="rgba(255,255,255,0.12)" stroke-width="1"/>
    <rect x="244" y="188" width="56" height="4" rx="2" fill="rgba(255,255,255,0.35)"/>

    <rect x="348" y="176" width="104" height="28" rx="10" fill="rgba(255,255,255,0.06)" stroke="rgba(255,255,255,0.12)" stroke-width="1"/>
    <rect x="360" y="188" width="56" height="4" rx="2" fill="rgba(255,255,255,0.35)"/>

    <rect x="116" y="220" width="336" height="28" rx="10" fill="url(#sb-purple)"/>
    <rect x="136" y="232" width="120" height="4" rx="2" fill="#EDE9FE"/>
    <path d="M420 234l6 6 12-12" stroke="#EDE9FE" stroke-width="2" stroke-linecap="round" stroke-linejoin="round"/>
  </g>
</svg>
