<svg xmlns="http://www.w3.org/2000/svg" viewBox="0 0 32 32" role="img" aria-label="Second Wind Pro">
  <rect width="32" height="32" rx="7" fill="#0d0e1a"/>
  <g fill="none" stroke="#f4efe6" stroke-width="1.6" stroke-linecap="round" stroke-linejoin="round">
    <path d="M4 10.5c3.2-1.4 6.8-1.4 10 0"/>
    <path d="M4 16c3.8-1.5 7.6-1.5 11.2 0"/>
    <path d="M4 21.5c3-1.2 6.2-1.2 9 0"/>
    <path d="M15.5 9.5c2.6 0 4.7 1.6 5.2 3.8.9.4 1.5 1.3 1.5 2.4 0 1.5-1.2 2.7-2.7 2.7h-6.8c-2 0-3.6-1.5-3.6-3.4 0-1.5 1-2.8 2.4-3.2.5-1.8 2.1-3.1 4-3.3z"/>
  </g>
</svg>
