<svg xmlns="http://www.w3.org/2000/svg" viewBox="0 0 32 32" role="img" aria-label="Second Wind Pro">
  <rect width="32" height="32" rx="6.5" fill="#0d0e1a"/>
  <g fill="none" stroke="#F4EFE6" stroke-width="1.9" stroke-linecap="round" stroke-linejoin="round">
    <path d="M5.4 11.1c3.5-1.5 7.3-1.5 10.8 0"/>
    <path d="M5.4 16c4.1-1.6 8.1-1.6 12 0"/>
    <path d="M5.4 20.9c3.2-1.3 6.6-1.3 9.7 0"/>
    <path d="M16.7 10.1c2.9 0 5.2 1.7 5.8 4.2 1 .5 1.6 1.4 1.6 2.6 0 1.6-1.3 2.9-2.9 2.9h-7.3c-2.1 0-3.9-1.6-3.9-3.6 0-1.6 1.1-3 2.7-3.4.5-1.9 2.2-3.3 4.3-3.6z"/>
  </g>
</svg>
